<?xml version="1.0" encoding="UTF-8"?>
<svg width="139px" height="102px" viewBox="0 0 139 102" version="1.1" xmlns="http://www.w3.org/2000/svg" xmlns:xlink="http://www.w3.org/1999/xlink">
    <title>logo-gridinary</title>
    <defs>
        <linearGradient x1="50.0000632%" y1="0%" x2="50.0000632%" y2="100.000411%" id="linearGradient-1">
            <stop stop-color="#00583E" offset="0%"></stop>
            <stop stop-color="#00835C" offset="100%"></stop>
        </linearGradient>
    </defs>
    <g id="Page-1" stroke="none" stroke-width="1" fill="none" fill-rule="evenodd">
        <g id="github-cover-copy" transform="translate(-50.000000, -168.000000)">
            <g id="logo-gridinary" transform="translate(50.969710, 168.565076)">
                <g id="Group-5" transform="translate(33.796067, 30.500000)">
                    <path d="M63.269381,28.917018 C66.6350952,28.7553037 69.6142381,31.3661609 69.9048095,34.7347323 C71.1636667,51.031018 56.2496667,69.2864466 35.2328095,69.8701609 C17.5216952,70.3073037 0.00491220978,56.1278752 0.00491220978,34.6881609 C0.00491220978,31.3093037 2.7969781,28.5701609 6.16646667,28.5701609 C9.53595238,28.5701609 12.2674667,31.3093037 12.2674667,34.6881609 C12.2674667,48.7907323 23.6068095,57.9175895 34.9328095,57.6381609 C48.875381,57.2507323 57.939381,45.1781609 57.4679524,35.321018 C57.3062381,31.9461609 59.9039524,29.079018 63.269381,28.917018 Z" id="Path" fill="url(#linearGradient-1)" fill-rule="nonzero"></path>
                    <path d="M48.0282381,35.1624466 C48.0282381,31.7033037 50.8499524,28.899018 54.3305238,28.899018 L63.5150952,28.899018 C66.9959524,28.899018 69.9048095,31.7033037 69.9048095,35.1624466 C69.9048095,38.6218752 66.9959524,41.4261609 63.5150952,41.4261609 L54.3305238,41.4261609 C50.8499524,41.4261609 48.0282381,38.6218752 48.0282381,35.1624466 Z" id="Path" fill="#00A672" fill-rule="nonzero"></path>
                    <path d="M28.7568095,35.1715895 C28.7568095,31.7073037 31.5605238,28.899018 35.0150952,28.899018 C38.4699524,28.899018 41.2736667,31.7073037 41.2736667,35.1715895 C41.2736667,38.6358752 38.4699524,41.4444466 35.0150952,41.4444466 C31.5605238,41.4444466 28.7568095,38.6358752 28.7568095,35.1715895 Z" id="Path" fill="#00A672" fill-rule="nonzero"></path>
                    <path d="M41.1002381,5.86418946 C41.2402381,9.24013232 38.6242381,12.0905037 35.2576667,12.2307037 C20.7246667,12.8359323 11.8524095,24.2583609 12.2842667,35.1041609 C12.4186952,38.4801609 9.85300952,41.3264466 6.48618095,41.4613037 C3.11938095,41.5961609 0.158634095,38.8713037 0.0242018098,35.4953037 C-0.679553333,17.8209609 14.0369524,0.348506606 34.751381,0.00536832041 C38.1179524,-0.134832537 40.9605238,2.48824946 41.1002381,5.86418946 Z" id="Path" fill="#00A672"></path>
                </g>
                <path d="M111.529239,32.1291017 C105.491047,13.1955165 87.9635077,0.290876935 68.0909161,0.14691976 C51.3995337,0.0519519126 36.0216352,9.18764049 28.1226526,23.8919759 C13.5020583,26.5121197 2.27530544,38.3210548 0.397049119,53.0553374 C-1.48120721,67.78962 6.42395927,82.0374013 19.9196586,88.2416765 L20.772952,88.6285029 L20.8298382,88.6285029 L20.8298382,78.9578442 C11.5811707,73.2805446 6.96993908,62.3475971 9.35922115,51.7617144 C11.7485032,41.1758318 20.6086984,33.2834468 31.3992993,32.1291017 L33.7885208,31.8788023 L34.8352274,29.7285029 C40.9028451,16.869554 53.8724811,8.69198326 68.0909161,8.76023939 C85.1653876,8.88070061 99.9658563,20.6084888 103.986126,37.2033532 L104.805287,40.4572454 L108.218461,40.4572454 C119.661664,40.6918909 128.827329,50.0141044 128.868162,61.4596406 C128.868162,69.4805987 124.237623,76.0452693 116.353192,79.367425 L116.353192,88.5374849 L116.922054,88.355449 C129.596305,84.2027544 137.469359,73.8949699 137.469359,61.4596406 C137.361517,46.576351 126.287761,34.0552355 111.529239,32.1291017 Z" id="Path-Copy" fill="#3448C5" fill-rule="nonzero"></path>
            </g>
        </g>
    </g>
</svg>